<svg width="90" height="84" viewBox="0 0 90 84" fill="none" xmlns="http://www.w3.org/2000/svg">
<path d="M37.5 21C36.5055 21 35.5516 21.3687 34.8484 22.0251C34.1451 22.6815 33.75 23.5717 33.75 24.5V65.065L25.1625 57.015C24.4564 56.3559 23.4987 55.9857 22.5 55.9857C21.5014 55.9857 20.5437 56.3559 19.8375 57.015C19.1314 57.6741 18.7347 58.5679 18.7347 59.5C18.7347 60.4321 19.1314 61.3259 19.8375 61.985L34.8375 75.985C35.3649 76.4707 36.0345 76.7996 36.762 76.9304C37.4894 77.0613 38.2421 76.988 38.925 76.72C39.6098 76.4574 40.1961 76.0115 40.6098 75.4385C41.0236 74.8655 41.2463 74.191 41.25 73.5V24.5C41.25 23.5717 40.8549 22.6815 40.1517 22.0251C39.4484 21.3687 38.4946 21 37.5 21ZM51.075 7.28C50.3902 7.54257 49.804 7.98846 49.3902 8.56149C48.9765 9.13451 48.7537 9.80901 48.75 10.5V59.5C48.75 60.4283 49.1451 61.3185 49.8484 61.9749C50.5516 62.6312 51.5055 63 52.5 63C53.4946 63 54.4484 62.6312 55.1517 61.9749C55.8549 61.3185 56.25 60.4283 56.25 59.5L56.25 18.935L64.8375 26.985C65.1861 27.313 65.6009 27.5734 66.0579 27.7511C66.5148 27.9288 67.005 28.0203 67.5 28.0203C67.9951 28.0203 68.4852 27.9288 68.9422 27.7511C69.3992 27.5734 69.8139 27.313 70.1625 26.985C70.514 26.6596 70.793 26.2725 70.9834 25.846C71.1738 25.4195 71.2718 24.962 71.2718 24.5C71.2718 24.038 71.1738 23.5805 70.9834 23.154C70.793 22.7275 70.514 22.3404 70.1625 22.015L55.1625 8.01501C54.6352 7.52935 53.9655 7.20036 53.2381 7.06956C52.5106 6.93874 51.7579 7.01197 51.075 7.28Z" fill="#A284DC"/>
</svg>
